<svg width="64" height="46" viewBox="0 0 64 46" fill="none" xmlns="http://www.w3.org/2000/svg">
<g clip-path="url(#clip0_1213_2)">
<path d="M21.7104 13.0815C21.7573 14.3475 21.2415 15.5667 20.8664 16.739C20.3037 18.2864 19.6472 19.8338 19.3659 21.5218C19.2721 22.1314 19.2252 22.741 19.4597 23.3037C19.6472 23.7257 20.2099 23.8664 20.6319 23.8195C21.1946 23.6788 21.5698 23.2099 21.898 22.7879C22.8358 21.5218 23.4923 20.1151 24.1019 18.7084C24.1019 19.6931 24.0081 20.8185 24.6646 21.6625C25.1804 22.2252 26.1182 22.0376 26.6809 21.6156C27.8531 20.7247 28.5565 19.4118 29.3068 18.1457C29.213 18.896 28.9316 19.6931 29.3068 20.4434C29.5881 21.0998 30.6197 21.2874 31.0417 20.6778C31.9327 19.5993 32.5891 18.3333 33.2925 17.1141C33.2456 17.9581 33.1049 18.896 33.5738 19.6462C33.8552 20.0682 34.4648 20.1151 34.8399 19.8338C35.8715 19.0366 36.3873 17.7706 37.0438 16.6921C36.7155 18.2395 35.9184 19.8807 36.4342 21.475C36.6217 22.1314 37.2782 22.3659 37.8878 22.5066C37.8878 21.0529 38.0285 19.5524 38.3567 18.1457C39.2476 14.2538 40.8888 10.5963 42.4831 6.98568C45.7655 6.46988 49.0947 6.14164 52.3771 5.76651C53.1274 5.48517 53.4556 4.59424 53.69 3.84398C52.7991 3.79709 51.8613 3.93777 50.9704 4.03155C48.4383 4.35978 45.8593 4.7818 43.3272 5.25071C43.6085 4.59424 43.9367 4.03155 44.265 3.37508C43.7492 3.2344 43.1865 3.09373 42.6707 3.28129C41.7329 3.65642 41.5922 4.82869 41.0764 5.62584C37.7471 6.28231 34.4179 6.93879 31.1355 7.73593C30.1039 8.01728 29.0723 8.25173 28.0876 8.67375C27.7125 8.81442 27.5718 9.23644 27.3842 9.56468C31.6513 8.48619 36.0122 7.97039 40.3261 7.26702C39.4821 9.33022 38.7318 11.4403 37.9816 13.5504C37.794 14.2538 37.2782 14.7696 36.9031 15.3791C36.2466 16.2701 35.6839 17.3486 34.6992 17.9581C34.6992 17.161 34.8868 16.4107 35.0744 15.6605C35.4495 14.2069 35.9184 12.7063 36.9031 11.5341C36.1528 11.3934 35.5433 11.8623 35.1212 12.425C35.4495 11.581 35.7777 10.5963 35.4026 9.70535C35.1212 9.09577 34.3241 9.09577 33.8552 9.424C32.7767 10.1273 32.1671 11.3465 31.6044 12.425C31.1355 13.3159 30.9011 14.3006 30.2915 15.0978C29.5412 16.1294 28.8379 17.161 28.0407 18.0988C27.5718 18.6615 27.056 19.2242 26.3057 19.4586C25.7431 18.4739 26.212 17.3017 26.3995 16.2701C26.8215 16.317 27.2905 16.4576 27.7125 16.2701C28.5096 15.9887 29.0723 15.2385 29.4943 14.5351C30.1039 13.4566 30.5259 12.2843 30.6666 11.0183C30.7135 10.4087 30.3384 9.84602 29.7288 9.70535C28.8847 9.56468 28.1814 10.1273 27.6656 10.69C26.6809 11.8623 25.9775 13.269 25.4148 14.7227C24.9928 15.9887 24.2425 17.0672 23.5861 18.1926C23.0703 18.9897 22.6014 19.8807 21.898 20.4902C21.9918 19.2242 22.6014 18.0519 22.8827 16.8328C23.1641 15.5667 23.6799 14.3006 23.4923 13.0346C23.4454 12.425 22.9296 12.0499 22.4138 11.7685C22.9296 10.5963 23.5392 9.4709 23.8205 8.20484C23.9612 7.59526 24.0081 6.89189 23.7267 6.3292C23.4923 5.90718 23.0703 5.53206 22.5545 5.67273C21.8042 5.90719 21.3822 6.61055 20.9602 7.22013C20.3506 8.11106 19.7879 9.14266 19.741 10.268C19.741 11.0652 20.4913 11.5341 21.054 11.9561C19.1314 14.9571 17.1151 17.9581 14.7706 20.6309C13.5514 21.9908 12.2854 23.3975 10.5504 24.1008C9.89392 24.3822 8.9561 24.4291 8.4872 23.7257C7.9245 22.8348 7.9245 21.7094 8.01829 20.7247C8.25274 18.0988 9.09678 15.5667 10.0346 13.0815C9.4719 12.9408 8.9561 12.8939 8.39341 12.8939C10.0346 12.1905 11.9102 11.4872 12.8012 9.75224C12.3323 9.89291 11.8633 10.0805 11.3944 10.2211C12.3791 8.29862 13.5514 6.46988 15.0988 4.92248C15.896 4.17222 16.7869 3.46886 17.8654 3.18751C18.2874 3.04684 18.897 3.2344 18.897 3.79709C18.9908 4.82869 18.5219 5.76651 18.2405 6.75122C18.0061 6.75122 17.6778 6.65744 17.4903 6.89189C16.5524 7.73593 15.9429 8.9082 15.5208 10.0805C15.2395 11.0183 15.005 12.1437 15.6146 12.9877C16.5993 12.6126 17.1151 11.6279 17.7247 10.8307C19.2252 8.53308 20.4444 6.00097 21.1009 3.32818C21.2884 2.39037 21.4291 1.21809 20.8195 0.42095C20.163 -0.188632 19.1783 -0.0948501 18.3812 0.0927136C16.5055 0.655405 14.9581 1.96835 13.6452 3.32818C11.582 5.48517 9.9877 8.01728 8.67476 10.69C8.58098 11.0183 8.15896 11.0652 7.87761 11.1589C6.61156 11.3934 5.3455 11.6747 4.07945 11.7685C2.7665 11.8623 1.45356 11.9561 0.1875 11.581C0.234391 12.425 0.7033 13.2222 1.31288 13.7848C1.68801 14.16 2.20381 14.4882 2.7665 14.4413C4.40768 14.2069 6.00198 13.6911 7.54938 13.1753C6.47088 15.8949 5.8613 18.8022 5.72063 21.7563C5.72063 23.3975 5.72063 25.1324 6.65845 26.5392C7.22114 27.477 8.39341 28.0866 9.5188 27.899C10.8786 27.6177 12.004 26.6798 13.0356 25.7889C14.0672 24.8042 15.005 23.7726 15.8491 22.6941C17.7716 20.2089 19.4597 17.583 20.9602 14.8164C21.2884 14.2069 21.5698 13.5973 21.9449 13.0346L21.7104 13.0815ZM32.2609 14.582C32.8236 13.3159 33.3863 12.0499 34.2772 10.9714H34.7461C34.8399 11.7685 34.4179 12.5188 34.1365 13.2222C34.1365 13.5504 34.2772 13.9255 33.9959 14.2069C33.0112 15.6136 32.2609 17.2079 31.0417 18.3802C31.2293 17.0672 31.792 15.8012 32.3078 14.582H32.2609ZM29.3068 11.2058C29.1192 12.5188 28.6034 13.7848 27.7125 14.7696C27.4311 15.0509 27.056 15.1916 26.6809 15.3322C27.2436 13.7848 27.9469 12.1905 29.3537 11.2058H29.3068ZM21.6635 8.86131C21.898 8.4393 22.2262 8.11106 22.6483 7.82971C22.32 9.04888 21.9449 10.3149 21.1946 11.3465C20.8195 10.5025 21.2415 9.61157 21.6635 8.86131ZM53.5494 14.9102C53.6432 15.5667 53.9714 16.2232 54.5341 16.6452C55.3781 17.2548 56.4566 17.3017 57.3944 16.9734C58.8949 16.4576 60.1141 15.3791 61.1457 14.16C61.9429 13.1753 62.6462 12.0968 62.9745 10.8307C63.0682 10.3618 63.1151 9.79913 62.8338 9.37711C62.5993 9.14266 62.2711 9.14266 61.9429 9.04888C62.0366 9.424 62.1773 9.84602 61.9897 10.2211C61.5677 11.2527 60.8175 12.1437 60.0672 12.8939C59.2232 13.6911 58.2854 14.4413 57.16 14.8164C56.5035 15.0509 55.7064 14.9102 55.3312 14.3006C54.8623 13.269 55.3312 12.1905 55.6595 11.2058C56.1284 11.5341 56.738 11.7685 57.3007 11.5341C58.5667 11.0183 59.5045 9.84602 60.2079 8.67375C60.7237 7.82971 61.1926 6.845 60.9581 5.86029C60.8644 5.20382 60.3017 4.54735 59.5983 4.64113C58.6605 4.82869 58.004 5.48517 57.3475 6.14164C55.847 7.64215 54.7216 9.4709 54.0183 11.4403C53.6432 12.5188 53.3618 13.6911 53.5494 14.8164V14.9102ZM58.6605 6.89189C59.0356 6.51677 59.5045 6.23542 60.0203 6.09475C59.8797 7.22013 59.0825 8.15795 58.426 9.04888C57.7696 9.75224 57.1131 10.6431 56.0815 10.69C56.7849 9.33022 57.6289 8.01728 58.7074 6.89189H58.6605ZM53.4087 6.51677C52.5647 6.70433 51.9551 7.3608 51.4393 7.97039C50.1263 9.51779 49.1416 11.2996 48.11 13.0346C48.3445 12.1437 48.7196 11.2996 49.0947 10.4087C49.423 9.65846 49.9857 9.04888 50.4546 8.3924C50.8297 7.82971 51.3924 7.3608 51.4393 6.65744C50.8766 6.65744 50.2201 6.61055 49.7043 6.98568C49.0947 8.01728 48.7665 9.18955 48.0162 10.1273C47.266 11.1121 46.5626 12.1906 45.8593 13.1753C46.4688 11.1589 47.1722 9.09577 48.3445 7.31391C47.8287 7.17324 47.266 6.93879 46.7502 7.22013C46.422 7.31391 46.2813 7.64215 46.1875 7.92349C45.531 9.4709 44.687 10.8776 43.7961 12.2843C43.3272 13.0346 42.8582 13.7848 42.2487 14.3944C42.0142 14.6289 41.686 14.7227 41.4046 14.8164C41.4046 14.3944 41.4984 13.9724 41.6391 13.5973C42.2487 11.6747 43.1865 9.84602 43.9836 8.01728C43.6085 8.01728 43.2334 7.92349 42.9051 8.11106C42.5769 8.29862 42.4362 8.72064 42.2487 9.04888C41.264 11.1121 40.2792 13.2222 39.8103 15.4729C39.6697 16.2232 39.5759 17.1141 40.1386 17.7237C40.7482 17.9581 41.3108 17.4423 41.686 17.0203C42.8582 15.6605 43.7023 14.0662 44.687 12.5657C44.4525 13.5504 44.0774 14.4882 43.7961 15.426C43.6085 15.8949 43.5616 16.4107 43.1865 16.7859C42.2487 17.8175 41.2171 18.8022 39.951 19.4586C39.3414 19.74 38.7318 19.8807 38.0754 20.1151C38.3098 20.4434 38.5912 20.6778 38.9194 20.9592C39.1539 21.9908 39.2008 23.163 39.951 24.0071C40.2324 24.3822 40.795 24.476 41.1702 24.2415C41.8735 23.8195 42.2487 23.0224 42.6238 22.319C43.5616 20.3496 44.265 18.2395 44.9214 16.1763L44.3119 16.3638C45.2966 15.1916 46.1406 13.9255 47.0784 12.7532C46.2344 14.9102 45.4372 17.161 44.8277 19.4118C44.6401 20.0682 44.5932 20.8185 44.9214 21.4281C45.2497 21.9908 45.8124 22.319 46.3282 22.6472C46.422 20.7247 46.7033 18.8022 47.1253 16.9265C47.4067 15.9418 48.0631 15.0978 48.4852 14.2069C48.7665 14.8164 49.0947 15.6136 49.845 15.7543C50.6421 15.9418 51.3455 15.2854 51.7675 14.7227C52.7522 13.4097 53.4087 11.9092 53.9714 10.3618C54.2996 9.424 54.6279 8.3924 54.4872 7.3608C54.4403 6.845 53.9714 6.42299 53.4556 6.56366L53.4087 6.51677ZM41.3108 21.2405C41.0764 21.5218 40.795 21.897 40.373 21.8032C39.9979 21.5687 39.8572 21.1467 39.6697 20.7716C40.8888 20.1151 41.8266 19.1304 42.8114 18.1457C42.4362 19.2242 42.0142 20.3027 41.3577 21.1936L41.3108 21.2405ZM52.2833 10.6431C51.8613 11.6747 51.3924 12.6595 50.689 13.5035C50.4077 13.8317 50.0326 14.2069 49.5636 14.16C49.1885 13.9255 49.0947 13.5035 48.9541 13.1284C49.7512 11.8154 50.5484 10.5025 51.4393 9.28333C51.8613 8.72064 52.2364 8.11106 52.9398 7.8766C52.9398 8.81442 52.6116 9.75224 52.2833 10.5963V10.6431ZM55.6126 18.1457C54.159 19.4118 53.3149 21.2405 52.6116 23.0224C52.2364 22.5066 51.9082 21.897 52.002 21.2405C52.1427 19.9744 52.7991 18.8022 53.5025 17.7706C54.2058 17.3954 54.9561 17.8644 55.6126 18.1926V18.1457ZM63.4434 17.9581C62.5524 18.7084 61.5208 19.318 60.3955 19.74C58.3323 20.6309 56.1284 21.2405 53.9245 21.6625C54.5341 22.0376 55.2843 22.1783 55.9877 22.2252C55.1906 23.0224 54.6748 24.0071 54.1121 24.9918C52.9398 26.8205 51.8613 28.6493 50.5484 30.3842C50.2201 30.8062 49.845 31.2283 49.3761 31.4627C49.3761 31.0407 49.3761 30.5718 49.5168 30.1498C50.1263 28.0397 51.1579 26.0703 52.0958 24.054C51.7206 23.9602 51.2986 23.8195 50.9235 23.9602C50.5484 24.2415 50.3139 24.6635 50.0794 25.0387C49.3292 26.3985 48.8134 27.8521 48.3914 29.3057C48.2507 29.8684 47.9694 30.3373 47.6411 30.8062C47.2191 31.4627 46.844 32.1661 46.1406 32.4943C46.0937 32.1192 46.0468 31.6972 46.1406 31.322C46.4688 29.0713 47.266 26.9143 48.0631 24.7573C48.9541 22.6003 49.7512 20.4434 51.0173 18.4739C50.5952 18.0519 49.7981 17.7706 49.423 18.427C47.9225 20.584 47.0315 23.0692 45.9999 25.4607C45.8124 24.8511 45.7186 24.1008 45.1559 23.7257C44.687 23.3975 44.0774 23.7257 43.6554 24.054C42.9051 24.7104 42.3893 25.5545 41.8735 26.4454C41.1702 27.8052 40.5606 29.2588 40.0448 30.7125C39.6228 32.213 38.5912 33.5259 37.3251 34.4169C37.3251 33.5728 37.5596 32.7757 37.7471 31.9785C38.1692 30.478 38.5912 28.8837 39.6697 27.7114C39.107 27.5239 38.3567 27.477 37.9816 28.0397C36.7624 29.7278 35.7777 31.6034 34.5585 33.2446C33.9959 33.8542 33.527 34.6044 32.8236 35.0264C32.636 34.0886 33.1049 33.2446 33.3863 32.4005C33.9021 30.8531 34.6523 29.3995 35.3088 27.9459C34.9806 27.9459 34.5586 27.7583 34.2303 27.9459C33.8083 28.1804 33.527 28.6493 33.2925 29.0713C32.7298 30.2436 32.3078 31.4627 31.8858 32.6819C31.6982 33.2446 31.3231 33.7135 31.0417 34.1824C30.6666 34.792 30.2446 35.4016 29.7288 35.8705H29.3537C29.3068 35.214 29.3537 34.6044 29.4943 34.0417C30.057 31.6503 30.9948 29.3995 31.8858 27.1488C32.636 26.8674 33.4332 26.633 34.2303 26.4454C35.9184 26.0234 37.6534 25.5545 39.3883 25.7889C39.0601 24.898 38.2629 24.1008 37.2313 24.1477C35.6839 24.2415 34.1834 24.898 32.7298 25.2731C33.1987 24.2415 33.7614 23.2099 34.2772 22.2252C33.7145 22.0376 33.0112 21.897 32.5422 22.319C31.9327 23.4444 31.4638 24.6635 30.9011 25.7889C30.7604 26.0703 30.479 26.1172 30.2446 26.2109C29.4474 26.4923 28.6972 26.8205 27.9469 27.1019C28.6034 26.164 29.4005 25.1793 29.4943 24.0071C29.4474 23.0692 28.4627 22.319 27.5718 22.4128C26.3995 22.4597 25.321 23.0224 24.3363 23.6319C22.5545 24.8042 20.9602 26.3516 20.0224 28.2741C19.2721 29.8215 19.2721 31.7441 20.163 33.1977C20.8195 34.0417 21.476 34.8858 22.3669 35.4953C22.9296 35.9174 23.5392 36.4332 23.633 37.1834C23.6799 38.0275 23.1172 38.7777 22.5545 39.3404C21.1009 40.7002 19.319 41.6381 17.4434 42.2476C17.6778 42.7165 17.9592 43.2323 18.4281 43.4668C19.0845 43.8888 19.9755 43.8888 20.7257 43.7013C22.4138 43.2792 23.9143 42.1539 25.0866 40.8878C25.8837 39.95 26.6809 38.8715 26.6809 37.6054C26.5871 36.2925 25.5086 35.4016 24.477 34.792C23.7267 34.37 23.0703 33.8542 22.4138 33.2915C21.476 32.4005 21.1946 30.9 21.6635 29.7278C22.1793 28.2741 23.3047 27.1488 24.477 26.164C25.4148 25.4607 26.3995 24.6635 27.6187 24.5229C27.6187 24.898 27.6187 25.2731 27.4311 25.6014C26.8684 26.6798 26.212 27.6646 25.4148 28.6024C24.899 29.212 24.5239 30.0091 24.7115 30.8062C25.1335 30.3373 25.5086 29.8684 26.0244 29.5402C27.2436 28.743 28.6034 28.1804 30.0101 27.7114C29.1661 29.8215 28.3689 31.9316 27.7125 34.0886C27.478 35.1202 27.2436 36.1987 27.2905 37.2772C27.2905 37.8399 27.5249 38.4495 28.0407 38.6839C28.5096 38.9184 29.0254 38.6839 29.4005 38.3557C30.1977 37.6054 30.7604 36.6207 31.2293 35.636C31.2293 36.3863 31.2293 37.371 32.0733 37.6992C32.4485 37.8868 32.7767 37.5585 33.0112 37.3241C34.1365 36.058 34.793 34.5106 35.6839 33.1039C35.8715 32.7288 36.0591 32.3537 36.2935 32.0254C36.0122 33.2446 35.5901 34.4637 35.9184 35.7298C36.0591 36.2456 36.5749 36.7614 37.1376 36.5738C38.0285 36.1518 38.4974 35.214 39.0132 34.4169C39.1539 34.8389 39.2476 35.3078 39.6228 35.5422C39.9979 35.8705 40.6544 35.8705 40.9826 35.4953C41.5922 34.8389 42.0142 33.9948 42.5769 33.2446C43.3272 32.1192 43.8898 30.8531 44.5932 29.6809C44.4056 30.9 44.0305 32.1661 44.1712 33.3852C44.265 33.8542 44.3588 34.4169 44.8277 34.6044C45.2497 34.8389 45.7655 34.6044 46.0937 34.3231C46.7502 33.7135 47.3598 33.0101 47.7818 32.213C47.7818 32.9163 47.9225 33.8073 48.7196 33.9948C49.1885 33.9011 49.5636 33.479 49.9388 33.1508C50.9235 31.8378 51.6268 30.3842 52.3771 28.9775C52.0489 30.3373 51.7206 31.8847 52.4709 33.1508C53.0805 33.8542 54.2059 34.1355 55.0499 33.6666C55.9408 33.3852 56.5504 32.635 57.1131 31.8847C58.4729 29.9622 59.4576 27.7583 60.2079 25.5076C60.583 24.1477 61.0519 22.741 60.6299 21.3343C61.4271 21.0998 62.3649 20.9592 63.0682 20.4902C63.6778 19.74 63.7247 18.7084 63.4434 17.8175V17.9581ZM45.2497 27.1488C45.2028 27.6646 44.8277 27.9928 44.5932 28.4148C43.7023 29.7278 42.9051 31.0876 41.9673 32.3536C41.7329 32.6819 41.4515 32.9632 41.1233 33.2446C41.4984 31.1814 42.4831 29.2588 43.374 27.3832C43.7961 26.6798 44.1712 25.6482 45.109 25.6014C45.2497 26.1172 45.3435 26.633 45.2497 27.1488ZM59.6452 23.4444C59.4107 24.8042 58.8012 26.1172 58.1916 27.3363C57.4882 28.6024 56.738 29.8684 55.6126 30.8531C55.2374 31.1345 54.7216 31.5096 54.2527 31.2283C53.9714 30.8531 54.0183 30.3842 54.0652 29.9153C54.2059 28.8368 54.581 27.8521 54.9561 26.8205L55.6595 26.9143C56.1284 25.1324 56.8317 23.3037 58.2385 22.0845C58.6136 21.8501 59.0356 21.8501 59.4576 21.7563C59.5983 22.2721 59.6921 22.8348 59.5983 23.3975L59.6452 23.4444ZM53.2211 35.6829C51.8613 35.5891 50.5015 35.636 49.1885 35.8705C44.0305 36.7614 39.0132 38.3557 34.1834 40.4658C31.1824 41.8256 28.2752 43.5606 26.0244 46.0458C25.6024 45.1549 25.5555 44.0764 26.0244 43.1386C26.5402 41.8725 27.9 41.2629 29.0254 40.7002C33.4332 38.6839 38.0754 37.1834 42.7645 36.0111C45.3904 35.4016 48.0162 34.7451 50.689 34.6982C51.58 34.6982 52.7053 34.7451 53.2211 35.636V35.6829Z" fill="#0E4ED0"/>
</g>
<defs>
<clipPath id="clip0_1213_2">
<rect width="64" height="46" fill="white"/>
</clipPath>
</defs>
</svg>
